<?xml version="1.0" encoding="UTF-8" standalone="no"?>
<!-- Created with Inkscape (http://www.inkscape.org/) -->

<svg
   width="128.00005mm"
   height="128.00023mm"
   viewBox="0 0 128.00005 128.00023"
   version="1.1"
   id="svg1"
   xmlns:xlink="http://www.w3.org/1999/xlink"
   xmlns="http://www.w3.org/2000/svg"
   xmlns:svg="http://www.w3.org/2000/svg">
  <defs
     id="defs1">
    <linearGradient
       id="linearGradient34">
      <stop
         style="stop-color:#ffffff;stop-opacity:1;"
         offset="0"
         id="stop35" />
      <stop
         style="stop-color:#2bc299;stop-opacity:1;"
         offset="1"
         id="stop34" />
    </linearGradient>
    <linearGradient
       id="linearGradient32">
      <stop
         style="stop-color:#18d690;stop-opacity:1;"
         offset="0"
         id="stop31" />
      <stop
         style="stop-color:#000000;stop-opacity:1;"
         offset="1"
         id="stop32" />
    </linearGradient>
    <linearGradient
       xlink:href="#linearGradient32"
       id="linearGradient28"
       x1="128.00026"
       y1="120.00027"
       x2="99.964172"
       y2="20.806557"
       gradientUnits="userSpaceOnUse"
       gradientTransform="translate(-2.1829828e-4,-3.9270867e-5)" />
    <linearGradient
       xlink:href="#linearGradient34"
       id="linearGradient35"
       x1="-5.3e-05"
       y1="64.000206"
       x2="127.99988"
       y2="37.999989"
       gradientUnits="userSpaceOnUse"
       gradientTransform="translate(5.6701726e-5,2.0729133e-5)" />
  </defs>
  <path
     d="m 127.99989,83.999976 c 0,11.04999 -10.22842,20.000334 -22.857,20.000334 H 36.571366 c -5.05715,0 -9.1426,-3.57502 -9.1426,-8.000024 0,-4.425 4.08545,-8.00003 9.1426,-8.00003 h 68.571524 c 2.51428,0 4.5713,-1.80028 4.5713,-4.00028 0,-2.20001 -2.05702,-3.999748 -4.5713,-3.999748 H 36.571366 c -10.08572,0 -18.28571,7.175058 -18.28571,16.000058 0,8.825004 8.19999,16.000054 18.28571,16.000054 H 118.8573 c 5.05714,0 9.14259,3.57503 9.14259,8.00003 z"
     style="opacity:1;mix-blend-mode:normal;fill:#155c42;fill-opacity:1;stroke:none;stroke-width:0.264583"
     id="path31-3" />
  <path
     d="m 127.99989,83.999976 c 0,11.04999 -10.22842,20.000334 -22.857,20.000334 H 36.571363 c -5.05715,0 -9.142595,-3.57502 -9.142595,-8.000024 0,-4.425 4.085445,-8.00003 9.142595,-8.00003 h 68.571527 c 2.51428,0 4.5713,-1.80028 4.5713,-4.00028 0,-2.20001 -2.05702,-3.999745 -4.5713,-3.999745 H 36.571363 c -10.08572,0 -18.285706,7.175055 -18.285706,16.000055 0,8.825004 8.199986,16.000054 18.285706,16.000054 H 118.8573 c 5.05714,0 9.14259,3.57503 9.14259,8.00003 z"
     style="display:inline;opacity:0.8;mix-blend-mode:normal;fill:url(#linearGradient28);stroke:none;stroke-width:0.264583"
     id="path31" />
  <path
     d="M 36.571415,-1.2708676e-6 C 16.371414,-1.2708676e-6 3.7017262e-6,14.325119 3.7017262e-6,32.000119 v 32.00011 32.000117 C 3.7017262e-6,78.325349 16.371414,64.000229 36.571415,64.000229 c 0,0 0,0 0,0 h 68.571525 c 12.62858,0 22.857,8.94981 22.857,19.999807 v -19.999807 -8.00003 -36.00038 c 0,-11.0500003 -10.22842,-19.9998202708676 -22.857,-19.9998202708676 z"
     style="opacity:1;fill:#2bc299;fill-opacity:1;stroke-width:0.264583"
     id="path30" />
  <path
     d="M 36.571416,-1.2708676e-6 C 16.371416,-1.2708676e-6 6.7017262e-6,14.325119 6.7017262e-6,32.000119 v 32.00011 32.000117 C 6.7017262e-6,78.325349 16.371416,64.000229 36.571416,64.000229 c 0,0 0,0 0,0 h 68.571524 c 12.62858,0 22.857,8.94981 22.857,19.999807 v -19.999807 -8.00003 -36.00038 c 0,-11.0500003 -10.22842,-19.9998202708676 -22.857,-19.9998202708676 z"
     style="opacity:0.5;fill:url(#linearGradient35);fill-opacity:1;stroke-width:0.264583"
     id="path30-3" />
  <path
     class="fa-primary"
     d="m 36.571466,80.000231 c -10.08572,0 -18.28572,7.174995 -18.28572,15.999995 0,8.825004 8.2,16.000004 18.28572,16.000004 h 82.285714 c 5.05714,0 9.14286,3.575 9.14286,8 0,4.425 -4.08572,8 -9.14286,8 H 36.571466 c -20.2,0 -36.571429298274,-14.325 -36.571429298274,-32.000004 C 3.6701726e-5,78.325229 16.371466,64.000229 36.571466,64.000229 h 68.571424 c 12.62858,0 22.85715,8.95 22.85715,19.999997 0,11.05 -10.22857,20.000004 -22.85715,20.000004 H 36.571466 c -5.05715,0 -9.14286,-3.575 -9.14286,-8.000004 0,-4.425 4.08571,-8 9.14286,-8 h 68.571424 c 2.51428,0 4.57143,-1.8 4.57143,-4 0,-2.2 -2.05715,-3.999995 -4.57143,-3.999995 z"
     fill="#bfbfbf"
     id="path2-3-8"
     style="display:inline;fill:#16c384;fill-opacity:1;stroke-width:0.267261" />
</svg>
